# xmcd CD database file
#
# Track frame offsets:
#	183
#	22223
#	35425
#	47720
#	57415
#	70875
#	87165
#	99975
#	117913
#	135618
#
# Disc length: 2028 seconds
#
# Revision: 15
# Processed by: cddbd v1.5.2PL0 Copyright (c) Steve Scherf et al.
# Submitted via: CDex 1.70beta2
#
DISCID=8707ea0a
DTITLE=Bobby McFerrin  - Simple Pleasures
DYEAR=1988
DGENRE=Jazz
TTITLE0=Don't Worry, Be Happy
TTITLE1=All I Want
TTITLE2=Drive My Car
TTITLE3=Simple Pleasures
TTITLE4=Good Lovin'
TTITLE5=Come To Me
TTITLE6=Suzie Q
TTITLE7=Drive
TTITLE8=Them Changes
TTITLE9=Sunshine Of Your Love
EXTD=EMI-Manhattan\nYear: 1988\nCatalog Number: CDP 548059\n YEAR: 1988
EXTT0=
EXTT1=
EXTT2=
EXTT3=
EXTT4=
EXTT5=
EXTT6=
EXTT7=
EXTT8=
EXTT9=
PLAYORDER=
